# xmcd CD database file
#
# Track frame offsets:
#	150
#	16743
#	35650
#	49860
#	63876
#	76076
#	86478
#	99891
#	109044
#	119993
#	131697
#	151182
#	171141
#	182051
#	193327
#	211170
#	220623
#	234877
#	248836
#	258110
#	270224
#	284896
#	300015
#	310898
#	329674
#
# Disc length: 4707 seconds
#
# Revision: 0
# Processed by: cddbd v1.5.2PL0 Copyright (c) Steve Scherf et al.
# Submitted via: CDex 1.51
#
DISCID=4f126119
DTITLE=John Fox - Voyage Of A Lifetime
DYEAR=2005
DGENRE=Beautiful Music
TTITLE0=Voyage Of A Lifetime
TTITLE1=Scarborough Fair
TTITLE2=Jovial Knights Overture
TTITLE3=First Meeting
TTITLE4=Those Warm Summer Days
TTITLE5=In A Mad Rush
TTITLE6=Waltz For Joy
TTITLE7=Siesta In Puerto Pollensa
TTITLE8=The Blue Eyed MacKenzie Lass
TTITLE9=Our Garden Of Memories
TTITLE10=Three White Doves
TTITLE11=Love Walked In
TTITLE12=Safe Grazing
TTITLE13=Billy Boy
TTITLE14=She Moved Through The Fair
TTITLE15=Ethereal Space
TTITLE16=Cosmos Adventure
TTITLE17=Earth And Space
TTITLE18=The Evil Force
TTITLE19=Alien Power
TTITLE20=Visions
TTITLE21=Society Waltz
TTITLE22=Melodic Panorama
TTITLE23=Danny Boy
TTITLE24=London Pride
EXTD=YEAR: 2005
EXTT0=
EXTT1=
EXTT2=
EXTT3=
EXTT4=
EXTT5=
EXTT6=
EXTT7=
EXTT8=
EXTT9=
EXTT10=
EXTT11=
EXTT12=
EXTT13=
EXTT14=
EXTT15=
EXTT16=
EXTT17=
EXTT18=
EXTT19=
EXTT20=
EXTT21=
EXTT22=
EXTT23=
EXTT24=
PLAYORDER=
